<svg width="433" height="433" viewBox="0 0 433 433" fill="none" xmlns="http://www.w3.org/2000/svg">
<circle cx="216.5" cy="216.5" r="216.5" fill="black"/>
<path d="M120.689 301.99C109.069 301.99 98.9886 299.82 90.4486 295.48C82.0486 291 75.5386 284.56 70.9186 276.16C66.4386 267.76 64.1986 257.54 64.1986 245.5V237.73H98.2186V247.39C98.2186 254.11 100.179 259.57 104.099 263.77C108.159 267.83 113.689 269.86 120.689 269.86C127.549 269.86 132.939 267.83 136.859 263.77C140.919 259.57 142.949 254.11 142.949 247.39V170.53H177.389V245.5C177.389 257.54 175.079 267.76 170.459 276.16C165.979 284.56 159.469 291 150.929 295.48C142.529 299.82 132.449 301.99 120.689 301.99ZM82.0486 174.73V144.7H177.389V174.73H82.0486Z" fill="white"/>
<path d="M329.34 298V144.7H363.78V298H329.34ZM230.22 298V144.7H264.66V298H230.22ZM258.57 236.05V205.81H335.43V236.05H258.57Z" fill="white"/>
</svg>
